<svg width="48" height="48" viewBox="0 0 48 48" fill="none" xmlns="http://www.w3.org/2000/svg">
<path d="M32 12C34.2091 12 36 10.2091 36 8C36 5.79086 34.2091 4 32 4C29.7909 4 28 5.79086 28 8C28 10.2091 29.7909 12 32 12Z" stroke="currentColor" stroke-width="1.5" stroke-linecap="round" stroke-linejoin="round"/>
<path d="M36 38L38 24L26 26M10 16L16 10L27 16L22.28 23M8.48003 29C7.91571 30.8461 7.8978 32.8161 8.42846 34.6722C8.95913 36.5283 10.0157 38.1911 11.4706 39.4599C12.9255 40.7287 14.7165 41.5493 16.6276 41.8226C18.5386 42.0959 20.4878 41.8102 22.24 41" stroke="currentColor" stroke-width="1.5" stroke-linecap="round" stroke-linejoin="round"/>
<path d="M27.52 35C28.0843 33.1538 28.1022 31.1838 27.5716 29.3277C27.0409 27.4717 25.9844 25.8089 24.5295 24.5401C23.0746 23.2712 21.2835 22.4507 19.3725 22.1774C17.4615 21.9041 15.5122 22.1898 13.76 23" stroke="currentColor" stroke-width="1.5" stroke-linecap="round" stroke-linejoin="round"/>
</svg>
