<svg width="48" height="48" viewBox="0 0 48 48" fill="none" xmlns="http://www.w3.org/2000/svg">
<path d="M9 8.25C9 7.38805 9.34241 6.5614 9.9519 5.9519C10.5614 5.34241 11.388 5 12.25 5H24V15.75C24 16.8772 24.4478 17.9582 25.2448 18.7552C26.0418 19.5522 27.1228 20 28.25 20H39V39.75C39 40.612 38.6576 41.4386 38.0481 42.0481C37.4386 42.6576 36.612 43 35.75 43H12.25C11.8232 43 11.4006 42.9159 11.0063 42.7526C10.612 42.5893 10.2537 42.3499 9.9519 42.0481C9.34241 41.4386 9 40.612 9 39.75V8.25ZM40 19.514V19.472C39.9787 18.373 39.5325 17.325 38.755 16.548L27.452 5.245C26.6551 4.44795 25.5741 4.00011 24.447 4H12.25C11.1228 4 10.0418 4.44777 9.2448 5.2448C8.44777 6.04183 8 7.12283 8 8.25V39.75C8 40.8772 8.44777 41.9582 9.2448 42.7552C10.0418 43.5522 11.1228 44 12.25 44H35.75C36.8772 44 37.9582 43.5522 38.7552 42.7552C39.5522 41.9582 40 40.8772 40 39.75V19.514ZM25 5.047C25.6611 5.16131 26.2707 5.47744 26.745 5.952L38.048 17.255C38.5226 17.7293 38.8387 18.3389 38.953 19H28.25C27.388 19 26.5614 18.6576 25.9519 18.0481C25.3424 17.4386 25 16.612 25 15.75V5.047Z" fill="currentColor"/>
</svg>
