<svg width="48" height="48" viewBox="0 0 48 48" fill="none" xmlns="http://www.w3.org/2000/svg">
<path d="M6.36399 25.6159C8.46599 29.2259 14.39 37.6199 24 37.6199C33.626 37.6199 39.54 29.2219 41.64 25.6159C41.9261 25.1257 42.0768 24.5682 42.0764 24.0006C42.0761 23.433 41.9248 22.8757 41.638 22.3859C39.538 18.7779 33.618 10.3799 24 10.3799C14.382 10.3799 8.46399 18.7739 6.36399 22.3819C6.07677 22.8724 5.92538 23.4305 5.92538 23.9989C5.92538 24.5673 6.07677 25.1254 6.36399 25.6159Z" stroke="currentColor" stroke-width="1.5" stroke-linejoin="round"/>
<path d="M24 29.25C25.3924 29.25 26.7277 28.6969 27.7123 27.7123C28.6969 26.7277 29.25 25.3924 29.25 24C29.25 22.6076 28.6969 21.2723 27.7123 20.2877C26.7277 19.3031 25.3924 18.75 24 18.75C22.6076 18.75 21.2723 19.3031 20.2877 20.2877C19.3031 21.2723 18.75 22.6076 18.75 24C18.75 25.3924 19.3031 26.7277 20.2877 27.7123C21.2723 28.6969 22.6076 29.25 24 29.25Z" stroke="currentColor" stroke-width="1.5" stroke-linejoin="round"/>
</svg>
