<svg width="32" height="32" viewBox="0 0 32 32" fill="none" xmlns="http://www.w3.org/2000/svg">
<rect width="32" height="32" rx="16" fill="black" fill-opacity="0.4"/>
<rect x="4" y="4" width="24" height="24" rx="12" fill="#E95298"/>
<path d="M15.925 16.2325C16.17 15.2025 16.1775 14.5625 15.915 13.4C16.49 13.2925 17.11 13.27 17.73 13.27C17.88 13.975 17.895 15.305 17.755 15.865L15.885 23.5075L14.1475 23.5475L15.9225 16.2325H15.925ZM17.445 10.365C17.7175 10.135 17.8525 9.84251 17.8525 9.49001C17.8525 9.17751 17.765 8.92751 17.5875 8.73751C17.41 8.54751 17.1525 8.45251 16.815 8.45251C16.435 8.45251 16.11 8.57251 15.8375 8.81001C15.565 9.04751 15.43 9.35501 15.43 9.73501C15.43 10.0325 15.5225 10.27 15.705 10.4475C15.8875 10.625 16.15 10.7125 16.4875 10.7125C16.8525 10.7125 17.1725 10.5975 17.4425 10.3675L17.445 10.365Z" fill="white"/>
</svg>
