<svg width="48" height="48" viewBox="0 0 48 48" fill="none" xmlns="http://www.w3.org/2000/svg">
<g clip-path="url(#clip0_1231_5968)">
<path d="M18.0001 28.2858H3.42864C2.97398 28.2858 2.53795 28.4664 2.21646 28.7879C1.89497 29.1094 1.71436 29.5454 1.71436 30.0001V44.5715C1.71436 45.0262 1.89497 45.4622 2.21646 45.7837C2.53795 46.1052 2.97398 46.2858 3.42864 46.2858H18.0001C18.4547 46.2858 18.8908 46.1052 19.2123 45.7837C19.5337 45.4622 19.7144 45.0262 19.7144 44.5715V30.0001C19.7144 29.5454 19.5337 29.1094 19.2123 28.7879C18.8908 28.4664 18.4547 28.2858 18.0001 28.2858ZM44.5715 28.2858H30.0001C29.5454 28.2858 29.1094 28.4664 28.7879 28.7879C28.4664 29.1094 28.2858 29.5454 28.2858 30.0001V44.5715C28.2858 45.0262 28.4664 45.4622 28.7879 45.7837C29.1094 46.1052 29.5454 46.2858 30.0001 46.2858H44.5715C45.0262 46.2858 45.4622 46.1052 45.7837 45.7837C46.1052 45.4622 46.2858 45.0262 46.2858 44.5715V30.0001C46.2858 29.5454 46.1052 29.1094 45.7837 28.7879C45.4622 28.4664 45.0262 28.2858 44.5715 28.2858ZM31.3029 1.71436H16.7315C16.2768 1.71436 15.8408 1.89497 15.5193 2.21646C15.1978 2.53795 15.0172 2.97398 15.0172 3.42864V18.0001C15.0172 18.4547 15.1978 18.8908 15.5193 19.2123C15.8408 19.5337 16.2768 19.7144 16.7315 19.7144H31.3029C31.7576 19.7144 32.1936 19.5337 32.5151 19.2123C32.8366 18.8908 33.0172 18.4547 33.0172 18.0001V3.42864C33.0172 2.97398 32.8366 2.53795 32.5151 2.21646C32.1936 1.89497 31.7576 1.71436 31.3029 1.71436Z" stroke="currentColor" stroke-width="1.5" stroke-linecap="round" stroke-linejoin="round"/>
</g>
<defs>
<clipPath id="clip0_1231_5968">
<rect width="48" height="48" fill="white"/>
</clipPath>
</defs>
</svg>
