<svg width="19" height="19" viewBox="0 0 19 19" fill="none" xmlns="http://www.w3.org/2000/svg">
<path d="M14.625 0.625H1.225C1.06587 0.625 0.913258 0.688214 0.800736 0.800736C0.688214 0.913258 0.625 1.06587 0.625 1.225V14.625M3.625 13.425L9.069 11.625L17.625 14.625M17.625 4.225V17.025C17.625 17.1841 17.5618 17.3367 17.4493 17.4493C17.3367 17.5618 17.1841 17.625 17.025 17.625H4.225C4.06587 17.625 3.91326 17.5618 3.80074 17.4493C3.68821 17.3367 3.625 17.1841 3.625 17.025V4.225C3.625 4.06587 3.68821 3.91326 3.80074 3.80074C3.91326 3.68821 4.06587 3.625 4.225 3.625H17.025C17.1841 3.625 17.3367 3.68821 17.4493 3.80074C17.5618 3.91326 17.625 4.06587 17.625 4.225ZM13.125 9.625C12.7272 9.625 12.3456 9.46696 12.0643 9.18566C11.783 8.90436 11.625 8.52282 11.625 8.125C11.625 7.72718 11.783 7.34564 12.0643 7.06434C12.3456 6.78304 12.7272 6.625 13.125 6.625C13.5228 6.625 13.9044 6.78304 14.1857 7.06434C14.467 7.34564 14.625 7.72718 14.625 8.125C14.625 8.52282 14.467 8.90436 14.1857 9.18566C13.9044 9.46696 13.5228 9.625 13.125 9.625Z" stroke="black" stroke-width="1.25" stroke-linecap="round" stroke-linejoin="round"/>
</svg>
