<svg width="16" height="16" viewBox="0 0 16 16" fill="none" xmlns="http://www.w3.org/2000/svg">
<path d="M1.708 15H4.5C4.642 15 4.76067 15.048 4.856 15.144C4.95134 15.24 4.99934 15.359 5 15.501C5.00067 15.643 4.95267 15.7617 4.856 15.857C4.75934 15.9523 4.64067 16 4.5 16H0.808004C0.579338 16 0.387338 15.9227 0.232004 15.768C0.0766708 15.6133 -0.000662393 15.4213 4.27351e-06 15.192V11.5C4.27351e-06 11.358 0.0480043 11.2393 0.144004 11.144C0.240004 11.0487 0.359004 11.0007 0.501004 11C0.643004 10.9993 0.761671 11.0473 0.857004 11.144C0.952338 11.2407 1 11.3593 1 11.5V14.292L4.246 11.046C4.33934 10.9527 4.454 10.9027 4.59 10.896C4.726 10.8893 4.84734 10.9393 4.954 11.046C5.06067 11.1527 5.114 11.2707 5.114 11.4C5.114 11.5293 5.06067 11.6473 4.954 11.754L1.708 15ZM15 1.708L11.754 4.954C11.6607 5.04733 11.546 5.09733 11.41 5.104C11.274 5.11067 11.1527 5.06067 11.046 4.954C10.9393 4.84733 10.886 4.72933 10.886 4.6C10.886 4.47067 10.9393 4.35267 11.046 4.246L14.292 1H11.5C11.358 1 11.2393 0.952 11.144 0.856C11.0487 0.76 11.0007 0.641 11 0.499C10.9993 0.357 11.0473 0.238333 11.144 0.143C11.2407 0.0476668 11.3593 0 11.5 0H15.192C15.4213 0 15.6133 0.0773332 15.768 0.232C15.9227 0.386667 16 0.578667 16 0.808V4.5C16 4.642 15.952 4.76067 15.856 4.856C15.76 4.95133 15.641 4.99933 15.499 5C15.357 5.00067 15.2383 4.95267 15.143 4.856C15.0477 4.75933 15 4.64067 15 4.5V1.708Z" fill="black"/>
</svg>
