<?xml version="1.0"?>
<svg width="155.90552" height="109.84252" xmlns="http://www.w3.org/2000/svg" xmlns:svg="http://www.w3.org/2000/svg" xmlns:xlink="http://www.w3.org/1999/xlink" version="1.1">

 <metadata>image/svg+xmlOpenclipartnotas musicales2014-04-22T03:34:54notas musicaleshttps://openclipart.org/detail/192966/notas-musicales-by-eoianna-192966EOIAnnacorcheamusicmusicalnotanotasnotesemicorchea</metadata>
 <g class="layer">
  <title>Layer 1</title>
  <g id="layer1">
   <g id="g4145" transform="translate(-166.659 771.761)">
    <path d="m161.01,-599.4c0,0.65 -1.05,1.17 -2.34,1.17c-1.3,0 -2.35,-0.52 -2.35,-1.17c0,-0.65 1.05,-1.17 2.35,-1.17c1.29,0 2.34,0.52 2.34,1.17z" fill="#000000" id="path3837" stroke="#000000" stroke-miterlimit="4" stroke-width="5.58" transform="matrix(1.18648 -0.301253 -0.0441729 1.09589 85.3795 -4.71902)"/>
    <path d="m306.78,-741.3c-0.05,0.62 -0.07,1.25 -0.1,1.87c-0.03,0.74 -0.06,1.48 -0.09,2.21c0.03,0.91 0.04,1.81 0.03,2.72c-0.02,1.12 0.03,2.24 0.04,3.35c-0.02,0.91 0,1.81 0.05,2.72c0.04,0.63 0.05,1.26 0.04,1.89c-0.02,0.58 -0.03,1.16 -0.06,1.73c-0.04,0.67 -0.06,1.34 -0.09,2.01c-0.02,0.65 -0.06,1.31 -0.08,1.96c-0.01,0.56 -0.04,1.12 -0.06,1.68c-0.01,0.51 -0.04,1.03 -0.06,1.54c-0.02,0.47 -0.03,0.93 -0.05,1.4c-0.02,0.41 -0.03,0.82 -0.05,1.24c-0.02,0.34 -0.02,0.69 -0.04,1.04c-0.01,0.33 -0.02,0.65 -0.04,0.98c-0.01,0.29 -0.02,0.58 -0.03,0.87c-0.01,0.32 -0.03,0.65 -0.04,0.97c-0.01,0.28 -0.01,0.56 -0.07,0.83c0,0 -2.65,0.89 -2.65,0.89l0,0c0.1,-0.26 0.11,-0.52 0.11,-0.79c0.01,-0.32 0.02,-0.65 0.03,-0.97c0.02,-0.29 0.03,-0.58 0.04,-0.87c0.01,-0.33 0.03,-0.65 0.04,-0.98c0.01,-0.35 0.04,-0.7 0.04,-1.05c0.03,-0.41 0.04,-0.82 0.06,-1.24c0.02,-0.46 0.05,-0.93 0.06,-1.4c0.02,-0.51 0.04,-1.03 0.06,-1.54c0.03,-0.56 0.05,-1.12 0.08,-1.68c0.03,-0.66 0.05,-1.31 0.08,-1.97c0.03,-0.66 0.06,-1.33 0.07,-2c0.02,-0.57 0.06,-1.15 0.07,-1.72c0.01,-0.63 0.02,-1.27 -0.01,-1.9c-0.04,-0.91 -0.05,-1.82 -0.02,-2.73c0,-1.12 -0.05,-2.24 -0.04,-3.36c0,-0.9 -0.03,-1.8 -0.07,-2.7c0.02,-0.74 0.06,-1.48 0.09,-2.22c0.02,-0.62 0.05,-1.23 0.04,-1.85c0,0 2.62,-0.93 2.62,-0.93z" fill="#000000" id="path3843" stroke="#000000" stroke-miterlimit="4" stroke-width="0"/>
    <path d="m306.85,-741.18c0.61,0.95 1.4,1.78 2.13,2.63c1,1.15 2.05,2.24 3.12,3.31c0.83,0.86 1.76,1.61 2.56,2.49c0.24,0.37 0.72,0.67 0.8,1.13c0.02,0.09 0,0.17 0,0.26c-0.14,0.56 -0.6,0.94 -1.03,1.28c-0.46,0.3 -0.89,0.64 -1.3,1.01c-0.25,0.26 -0.47,0.53 -0.77,0.72c-0.96,0.65 -1.88,1.03 -3.01,1.62c-0.06,0.03 -0.23,0.13 -0.17,0.1c2.29,-1.2 3.17,-1.69 2.23,-1.17c-0.18,0.12 -0.09,0.05 -0.26,0.2c0,0 -2.71,1.01 -2.71,1.01l0,0c0.16,-0.18 0.08,-0.09 0.24,-0.26c0.67,-0.46 6.35,-3.34 0.65,-0.34c-0.11,0.06 0.43,-0.25 0.29,-0.22c0.36,-0.19 0.56,-0.31 0.81,-0.65c0.39,-0.41 0.84,-0.75 1.3,-1.07c0.42,-0.27 0.84,-0.61 1.09,-1.06c0.02,-0.04 0.06,-0.08 0.06,-0.13c0.03,-0.33 -0.57,-0.76 -0.71,-1.04c-0.76,-0.91 -1.67,-1.67 -2.49,-2.52c-1.07,-1.08 -2.12,-2.18 -3.13,-3.32c-0.76,-0.86 -1.55,-1.69 -2.25,-2.61c0,0 2.55,-1.37 2.55,-1.37z" fill="#000000" id="path3845" stroke="#000000" stroke-miterlimit="4" stroke-width="0"/>
   </g>
   <g id="g4140" transform="translate(-205.347 770.313)">
    <path d="m150.79,-602.13c0,0.65 -1.05,1.17 -2.34,1.17c-1.3,0 -2.35,-0.52 -2.35,-1.17c0,-0.65 1.05,-1.17 2.35,-1.17c1.29,0 2.34,0.52 2.34,1.17z" fill="#000000" id="path3862" stroke="#000000" stroke-miterlimit="4" stroke-width="5.58" transform="matrix(1.19022 -0.286122 -0.0581227 1.09523 69.0688 -2.82495)"/>
    <path d="m287.83,-736.32c-0.06,0.62 -0.09,1.24 -0.12,1.86c-0.05,0.74 -0.08,1.48 -0.12,2.22c0.02,0.9 0.01,1.81 0,2.71c-0.04,1.12 -0.01,2.24 -0.01,3.36c-0.03,0.9 -0.02,1.81 0.02,2.71c0.03,0.63 0.03,1.27 0.01,1.9c-0.03,0.57 -0.05,1.15 -0.08,1.72c-0.05,0.67 -0.08,1.34 -0.11,2.01c-0.03,0.65 -0.08,1.31 -0.11,1.96c-0.02,0.56 -0.05,1.12 -0.08,1.68c-0.02,0.51 -0.05,1.03 -0.08,1.54c-0.03,0.47 -0.04,0.93 -0.07,1.4c-0.02,0.41 -0.04,0.82 -0.06,1.23c-0.02,0.35 -0.03,0.7 -0.05,1.05c-0.03,0.32 -0.04,0.65 -0.06,0.97c-0.01,0.29 -0.03,0.58 -0.04,0.87c-0.02,0.33 -0.04,0.65 -0.06,0.98c-0.01,0.28 -0.01,0.55 -0.08,0.82c0,0 -2.65,0.86 -2.65,0.86l0,0c0.1,-0.26 0.11,-0.52 0.11,-0.79c0.02,-0.32 0.03,-0.64 0.05,-0.97c0.02,-0.29 0.03,-0.58 0.05,-0.87c0.02,-0.32 0.04,-0.65 0.05,-0.98c0.02,-0.34 0.04,-0.69 0.06,-1.04c0.02,-0.41 0.05,-0.83 0.07,-1.24c0.02,-0.47 0.06,-0.94 0.08,-1.4c0.02,-0.52 0.05,-1.03 0.08,-1.54c0.03,-0.56 0.06,-1.12 0.09,-1.68c0.05,-0.66 0.07,-1.31 0.11,-1.97c0.04,-0.66 0.08,-1.33 0.1,-2c0.03,-0.57 0.07,-1.15 0.09,-1.72c0.02,-0.63 0.04,-1.26 0.01,-1.9c-0.03,-0.91 -0.02,-1.82 0.02,-2.73c0.02,-1.12 -0.03,-2.24 0,-3.36c0.02,-0.9 -0.01,-1.8 -0.04,-2.7c0.04,-0.74 0.09,-1.48 0.12,-2.22c0.03,-0.61 0.07,-1.23 0.07,-1.85c0,0 2.63,-0.89 2.63,-0.89z" fill="#000000" id="path3864" stroke="#000000" stroke-miterlimit="4" stroke-width="0"/>
    <path d="m287.9,-736.2c0.59,0.96 1.37,1.79 2.1,2.66c0.98,1.15 2.01,2.26 3.07,3.34c0.82,0.87 1.74,1.63 2.53,2.53c0.24,0.37 0.72,0.67 0.79,1.14c0.01,0.08 -0.01,0.17 -0.01,0.25c-0.14,0.56 -0.61,0.93 -1.05,1.27c-0.46,0.3 -0.89,0.63 -1.3,1c-0.26,0.25 -0.48,0.52 -0.79,0.71c-0.97,0.63 -1.88,1 -3.03,1.58c-0.06,0.03 -0.23,0.12 -0.17,0.09c2.31,-1.17 3.2,-1.64 2.25,-1.14c-0.18,0.12 -0.09,0.05 -0.27,0.2c0,0 -2.72,0.97 -2.72,0.97l0,0c0.16,-0.17 0.08,-0.09 0.24,-0.26c0.68,-0.45 6.4,-3.25 0.65,-0.32c-0.1,0.05 0.44,-0.25 0.31,-0.22c0.35,-0.19 0.55,-0.31 0.81,-0.64c0.39,-0.4 0.85,-0.74 1.31,-1.05c0.43,-0.27 0.85,-0.61 1.11,-1.05c0.02,-0.04 0.06,-0.08 0.06,-0.13c0.03,-0.33 -0.56,-0.77 -0.7,-1.05c-0.75,-0.92 -1.65,-1.69 -2.46,-2.55c-1.06,-1.09 -2.09,-2.2 -3.08,-3.36c-0.75,-0.87 -1.54,-1.71 -2.22,-2.64c0,0 2.57,-1.33 2.57,-1.33z" fill="#000000" id="path3866" stroke="#000000" stroke-miterlimit="4" stroke-width="0"/>
   </g>

   <g id="g4154" transform="translate(-255.779 709.17)">
    <path d="m314.88,-673.85c0.65,0.93 1.47,1.72 2.24,2.54c1.04,1.11 2.13,2.16 3.24,3.18c0.87,0.82 1.83,1.54 2.67,2.39c0.25,0.36 0.74,0.64 0.84,1.1c0.02,0.08 0.01,0.17 0.01,0.25c-0.12,0.57 -0.56,0.97 -0.98,1.32c-0.45,0.32 -0.86,0.68 -1.25,1.07c-0.24,0.27 -0.45,0.55 -0.75,0.75c-0.93,0.68 -1.83,1.1 -2.94,1.74c-0.06,0.03 -0.22,0.13 -0.17,0.1c2.25,-1.29 3.11,-1.81 2.19,-1.26c-0.18,0.13 -0.09,0.06 -0.26,0.21c0,0 -2.67,1.12 -2.67,1.12l0,0c0.16,-0.18 0.08,-0.09 0.23,-0.27c0.65,-0.49 6.22,-3.59 0.64,-0.36c-0.11,0.06 0.42,-0.27 0.29,-0.23c0.34,-0.21 0.54,-0.34 0.78,-0.69c0.37,-0.42 0.8,-0.78 1.25,-1.12c0.42,-0.28 0.82,-0.64 1.05,-1.1c0.02,-0.04 0.05,-0.09 0.05,-0.14c0.02,-0.33 -0.6,-0.73 -0.75,-1.01c-0.79,-0.87 -1.73,-1.6 -2.59,-2.41c-1.11,-1.03 -2.21,-2.09 -3.26,-3.19c-0.79,-0.83 -1.62,-1.63 -2.35,-2.52c0,0 2.49,-1.47 2.49,-1.47z" fill="#000000" id="path3946" stroke="#000000" stroke-miterlimit="4" stroke-width="0"/>
    <path d="m150.79,-602.13c0,0.65 -1.05,1.17 -2.34,1.17c-1.3,0 -2.35,-0.52 -2.35,-1.17c0,-0.65 1.05,-1.17 2.35,-1.17c1.29,0 2.34,0.52 2.34,1.17z" fill="#000000" id="path3950" stroke="#000000" stroke-miterlimit="4" stroke-width="5.58" transform="matrix(1.19022 -0.286122 -0.0581227 1.09523 96.483 52.4178)"/>
    <path d="m315.25,-681.08c-0.06,0.62 -0.09,1.24 -0.13,1.86c-0.04,0.74 -0.07,1.48 -0.12,2.22c0.02,0.91 0.02,1.81 0,2.72c-0.03,1.11 0,2.23 0,3.35c-0.04,0.9 -0.03,1.81 0.01,2.71c0.04,0.64 0.04,1.27 0.02,1.9c-0.03,0.58 -0.05,1.15 -0.09,1.73c-0.04,0.66 -0.08,1.33 -0.11,2c-0.03,0.66 -0.08,1.31 -0.1,1.97c-0.03,0.55 -0.06,1.11 -0.09,1.67c-0.02,0.51 -0.05,1.03 -0.08,1.54c-0.03,0.47 -0.04,0.93 -0.06,1.4c-0.03,0.41 -0.05,0.82 -0.07,1.24c-0.02,0.34 -0.03,0.69 -0.05,1.04c-0.02,0.33 -0.03,0.65 -0.05,0.98c-0.02,0.29 -0.03,0.58 -0.05,0.87c-0.01,0.32 -0.04,0.65 -0.05,0.97c-0.02,0.28 -0.02,0.55 -0.08,0.82c0,0 -2.66,0.86 -2.66,0.86l0,0c0.1,-0.26 0.11,-0.52 0.12,-0.78c0.01,-0.33 0.03,-0.65 0.04,-0.97c0.02,-0.29 0.04,-0.59 0.05,-0.88c0.02,-0.32 0.04,-0.65 0.05,-0.97c0.02,-0.35 0.05,-0.7 0.06,-1.05c0.03,-0.41 0.05,-0.82 0.07,-1.24c0.02,-0.47 0.06,-0.93 0.08,-1.4c0.03,-0.51 0.05,-1.03 0.08,-1.54c0.03,-0.56 0.06,-1.12 0.1,-1.68c0.04,-0.65 0.06,-1.31 0.1,-1.97c0.04,-0.66 0.08,-1.33 0.11,-2c0.02,-0.57 0.07,-1.14 0.08,-1.72c0.02,-0.63 0.04,-1.26 0.02,-1.89c-0.03,-0.92 -0.02,-1.83 0.02,-2.74c0.01,-1.12 -0.03,-2.24 -0.01,-3.35c0.02,-0.91 0,-1.81 -0.03,-2.71c0.03,-0.74 0.08,-1.48 0.11,-2.22c0.03,-0.61 0.07,-1.23 0.08,-1.84c0,0 2.63,-0.9 2.63,-0.9z" fill="#000000" id="path3952" stroke="#000000" stroke-miterlimit="4" stroke-width="0"/>
    <path d="m315.31,-680.96c0.6,0.96 1.38,1.79 2.1,2.66c0.98,1.15 2.02,2.26 3.07,3.34c0.82,0.87 1.75,1.63 2.53,2.53c0.24,0.37 0.72,0.67 0.79,1.14c0.01,0.08 0,0.17 0,0.26c-0.15,0.55 -0.61,0.93 -1.05,1.26c-0.46,0.3 -0.9,0.64 -1.31,1c-0.25,0.25 -0.47,0.52 -0.78,0.71c-0.97,0.63 -1.89,1 -3.03,1.58c-0.06,0.03 -0.23,0.12 -0.18,0.09c2.31,-1.17 3.2,-1.64 2.25,-1.13c-0.18,0.11 -0.09,0.05 -0.26,0.19c0,0 -2.73,0.98 -2.73,0.98l0,0c0.16,-0.18 0.08,-0.09 0.24,-0.26c0.68,-0.45 6.4,-3.26 0.66,-0.33c-0.11,0.06 0.44,-0.25 0.3,-0.21c0.36,-0.2 0.56,-0.31 0.81,-0.65c0.4,-0.4 0.85,-0.74 1.32,-1.05c0.43,-0.27 0.85,-0.6 1.1,-1.04c0.02,-0.05 0.06,-0.09 0.06,-0.14c0.03,-0.33 -0.56,-0.77 -0.7,-1.05c-0.74,-0.92 -1.64,-1.69 -2.45,-2.54c-1.06,-1.1 -2.1,-2.21 -3.09,-3.36c-0.75,-0.87 -1.53,-1.72 -2.21,-2.64c0,0 2.56,-1.34 2.56,-1.34z" fill="#000000" id="path3954" stroke="#000000" stroke-miterlimit="4" stroke-width="0"/>
   </g>
   <g id="g4262" transform="translate(-62.3047 -5.66406)">
    <path d="m81.95,71.09c-0.04,0.71 -1.32,1.58 -2.86,1.95c-1.54,0.37 -2.76,0.1 -2.72,-0.61c0.04,-0.71 1.32,-1.58 2.86,-1.96c1.54,-0.37 2.76,-0.09 2.72,0.62z" fill="#000000" id="path3966" stroke="#000000" stroke-miterlimit="4" stroke-width="6.33"/>
    <path d="m86.24,40.28c-0.06,0.62 -0.09,1.25 -0.13,1.87c-0.04,0.74 -0.07,1.47 -0.11,2.21c0.02,0.91 0.01,1.81 -0.01,2.72c-0.03,1.12 0,2.23 0,3.35c-0.03,0.91 -0.02,1.81 0.01,2.72c0.04,0.63 0.04,1.26 0.02,1.89c-0.03,0.58 -0.05,1.16 -0.08,1.73c-0.05,0.67 -0.08,1.34 -0.11,2c-0.04,0.66 -0.08,1.31 -0.11,1.97c-0.02,0.56 -0.05,1.12 -0.08,1.67c-0.03,0.52 -0.05,1.03 -0.09,1.55c-0.02,0.46 -0.04,0.93 -0.06,1.39c-0.03,0.41 -0.05,0.83 -0.06,1.24c-0.03,0.35 -0.04,0.7 -0.06,1.04c-0.02,0.33 -0.03,0.65 -0.05,0.98c-0.01,0.29 -0.03,0.58 -0.04,0.87c-0.02,0.33 -0.04,0.65 -0.06,0.98c-0.01,0.27 -0.01,0.55 -0.08,0.82c0,0 -2.66,0.85 -2.66,0.85l0,0c0.11,-0.25 0.12,-0.51 0.12,-0.78c0.02,-0.32 0.03,-0.65 0.05,-0.97c0.01,-0.29 0.03,-0.58 0.05,-0.87c0.01,-0.33 0.03,-0.65 0.05,-0.98c0.01,-0.35 0.04,-0.7 0.06,-1.05c0.02,-0.41 0.05,-0.82 0.06,-1.24c0.03,-0.46 0.06,-0.93 0.09,-1.4c0.02,-0.51 0.05,-1.03 0.08,-1.54c0.03,-0.56 0.06,-1.12 0.09,-1.68c0.05,-0.65 0.07,-1.31 0.11,-1.96c0.04,-0.67 0.08,-1.34 0.1,-2c0.03,-0.58 0.07,-1.15 0.09,-1.73c0.02,-0.63 0.03,-1.26 0.01,-1.89c-0.03,-0.91 -0.02,-1.82 0.02,-2.74c0.02,-1.11 -0.03,-2.23 0,-3.35c0.01,-0.9 -0.01,-1.8 -0.04,-2.71c0.04,-0.74 0.08,-1.47 0.12,-2.21c0.03,-0.62 0.07,-1.23 0.07,-1.85c0,0 2.63,-0.9 2.63,-0.9z" fill="#000000" id="path3968" stroke="#000000" stroke-miterlimit="4" stroke-width="0"/>
   </g>
   <g id="g4266" transform="translate(1.17188 0)">
    <path d="m114.92,58.38c0,0.71 -1.24,1.65 -2.75,2.11c-1.52,0.45 -2.75,0.24 -2.75,-0.47c0,-0.71 1.23,-1.65 2.75,-2.11c1.51,-0.45 2.75,-0.24 2.75,0.47z" fill="#000000" id="path3958" stroke="#000000" stroke-miterlimit="4" stroke-width="6.33"/>
    <path d="m118.63,27.24c-0.05,0.63 -0.06,1.25 -0.09,1.88c-0.03,0.74 -0.05,1.48 -0.07,2.22c0.03,0.9 0.04,1.81 0.04,2.71c-0.01,1.12 0.04,2.23 0.07,3.35c-0.02,0.91 0.01,1.81 0.06,2.71c0.05,0.62 0.06,1.25 0.05,1.89c-0.01,0.57 -0.02,1.15 -0.05,1.73c-0.03,0.67 -0.05,1.34 -0.07,2.01c-0.02,0.66 -0.06,1.32 -0.07,1.98c-0.01,0.56 -0.03,1.12 -0.05,1.68c-0.01,0.51 -0.03,1.03 -0.05,1.55c-0.02,0.47 -0.03,0.93 -0.04,1.4c-0.02,0.41 -0.03,0.83 -0.04,1.24c-0.02,0.35 -0.02,0.7 -0.04,1.05c-0.01,0.33 -0.02,0.65 -0.03,0.98c-0.01,0.29 -0.02,0.58 -0.03,0.88c-0.01,0.32 -0.02,0.65 -0.04,0.97c0,0.28 0,0.56 -0.06,0.83c0,0 -2.64,1.19 -2.64,1.19l0,0c0.1,-0.26 0.11,-0.52 0.1,-0.79c0.01,-0.33 0.02,-0.65 0.03,-0.98c0.01,-0.29 0.02,-0.58 0.03,-0.87c0.01,-0.33 0.03,-0.66 0.04,-0.98c0.01,-0.35 0.03,-0.7 0.03,-1.05c0.02,-0.42 0.04,-0.83 0.05,-1.25c0.01,-0.47 0.04,-0.94 0.06,-1.41c0.01,-0.52 0.03,-1.03 0.05,-1.55c0.02,-0.56 0.04,-1.12 0.06,-1.68c0.03,-0.66 0.04,-1.32 0.07,-1.98c0.02,-0.67 0.05,-1.34 0.06,-2.01c0.02,-0.57 0.05,-1.15 0.06,-1.73c0.01,-0.63 0.01,-1.26 -0.03,-1.89c-0.04,-0.91 -0.05,-1.82 -0.03,-2.73c0,-1.12 -0.07,-2.23 -0.06,-3.35c0,-0.9 -0.04,-1.8 -0.09,-2.69c0.02,-0.75 0.05,-1.49 0.07,-2.23c0.02,-0.62 0.05,-1.24 0.04,-1.85c0,0 2.61,-1.23 2.61,-1.23z" fill="#000000" id="path3960" stroke="#000000" stroke-miterlimit="4" stroke-width="0"/>
    <path d="m118.19,30.36c-0.34,0.09 -0.66,0.21 -0.98,0.32c-0.38,0.13 -0.76,0.27 -1.15,0.41c-0.44,0.23 -0.89,0.43 -1.35,0.62c-0.57,0.24 -1.12,0.52 -1.67,0.78c-0.47,0.18 -0.92,0.4 -1.35,0.65c-0.31,0.18 -0.62,0.33 -0.94,0.46c-0.3,0.1 -0.6,0.22 -0.89,0.32c-0.35,0.11 -0.7,0.24 -1.04,0.37c-0.34,0.12 -0.68,0.23 -1.02,0.36c-0.29,0.1 -0.58,0.21 -0.86,0.31c-0.27,0.1 -0.54,0.19 -0.8,0.28c-0.24,0.08 -0.48,0.18 -0.72,0.27c-0.22,0.07 -0.43,0.15 -0.64,0.23c-0.18,0.05 -0.36,0.13 -0.54,0.19c-0.17,0.06 -0.34,0.12 -0.51,0.18c-0.15,0.05 -0.3,0.11 -0.45,0.16c-0.17,0.06 -0.34,0.11 -0.5,0.17c-0.15,0.06 -0.28,0.12 -0.44,0.12c0,0 -1.38,-2.27 -1.38,-2.27l0,0c0.16,0.04 0.3,-0.01 0.43,-0.07c0.17,-0.06 0.34,-0.12 0.5,-0.19c0.15,-0.05 0.3,-0.1 0.45,-0.15c0.17,-0.06 0.34,-0.12 0.51,-0.18c0.18,-0.07 0.36,-0.12 0.54,-0.19c0.22,-0.07 0.43,-0.15 0.65,-0.23c0.24,-0.08 0.48,-0.16 0.72,-0.25c0.27,-0.09 0.53,-0.19 0.8,-0.28c0.29,-0.1 0.58,-0.21 0.87,-0.3c0.34,-0.12 0.68,-0.25 1.02,-0.36c0.35,-0.12 0.69,-0.24 1.03,-0.37c0.3,-0.11 0.6,-0.21 0.89,-0.32c0.33,-0.13 0.65,-0.26 0.95,-0.43c0.45,-0.24 0.9,-0.45 1.37,-0.62c0.57,-0.25 1.11,-0.55 1.68,-0.79c0.45,-0.19 0.89,-0.42 1.33,-0.66c0.38,-0.14 0.77,-0.27 1.15,-0.41c0.32,-0.12 0.64,-0.22 0.94,-0.36c0,0 1.4,2.23 1.4,2.23z" fill="#000000" id="path3976" stroke="#000000" stroke-miterlimit="4" stroke-width="0"/>
    <path d="m99.14,64.16c-0.03,0.71 -1.31,1.59 -2.85,1.96c-1.54,0.37 -2.76,0.1 -2.72,-0.61c0.03,-0.71 1.31,-1.59 2.85,-1.96c1.54,-0.37 2.76,-0.09 2.72,0.62l0,-0.01z" fill="#000000" id="path3982" stroke="#000000" stroke-miterlimit="4" stroke-width="6.33"/>
    <path d="m103.44,33.48c-0.06,0.62 -0.09,1.24 -0.13,1.86c-0.04,0.74 -0.07,1.48 -0.11,2.22c0.02,0.9 0.01,1.81 -0.01,2.71c-0.03,1.12 0,2.24 0,3.36c-0.03,0.9 -0.02,1.81 0.01,2.71c0.04,0.64 0.04,1.27 0.02,1.9c-0.03,0.58 -0.05,1.15 -0.08,1.73c-0.05,0.66 -0.08,1.33 -0.12,2c-0.03,0.66 -0.07,1.31 -0.1,1.96c-0.02,0.56 -0.05,1.12 -0.08,1.68c-0.03,0.51 -0.05,1.03 -0.09,1.54c-0.02,0.47 -0.04,0.93 -0.06,1.4c-0.03,0.41 -0.05,0.82 -0.06,1.24c-0.03,0.34 -0.04,0.69 -0.06,1.04c-0.02,0.32 -0.03,0.65 -0.05,0.98c-0.02,0.29 -0.03,0.58 -0.04,0.87c-0.02,0.32 -0.04,0.65 -0.06,0.97c-0.01,0.28 -0.01,0.55 -0.08,0.82c0,0 -2.66,0.86 -2.66,0.86l0,0c0.11,-0.26 0.12,-0.52 0.12,-0.79c0.02,-0.32 0.03,-0.64 0.05,-0.96c0.01,-0.3 0.03,-0.59 0.05,-0.88c0.01,-0.32 0.03,-0.65 0.05,-0.97c0.01,-0.35 0.04,-0.7 0.06,-1.05c0.02,-0.41 0.05,-0.83 0.06,-1.24c0.03,-0.47 0.06,-0.93 0.09,-1.4c0.02,-0.52 0.05,-1.03 0.08,-1.54c0.03,-0.56 0.06,-1.12 0.09,-1.68c0.05,-0.66 0.07,-1.31 0.11,-1.97c0.04,-0.66 0.08,-1.33 0.1,-2c0.03,-0.57 0.07,-1.15 0.09,-1.72c0.02,-0.63 0.03,-1.26 0.01,-1.89c-0.03,-0.92 -0.02,-1.83 0.02,-2.74c0.02,-1.12 -0.03,-2.24 0,-3.35c0.01,-0.91 -0.01,-1.81 -0.04,-2.71c0.04,-0.74 0.08,-1.48 0.12,-2.22c0.03,-0.61 0.06,-1.23 0.07,-1.84c0,0 2.63,-0.9 2.63,-0.9z" fill="#000000" id="path3984" stroke="#000000" stroke-miterlimit="4" stroke-width="0"/>
    <path d="m118.34,36.29c-0.34,0.07 -0.66,0.17 -0.99,0.26c-0.39,0.11 -0.78,0.23 -1.17,0.34c-0.45,0.2 -0.91,0.38 -1.38,0.55c-0.58,0.19 -1.14,0.45 -1.71,0.68c-0.47,0.15 -0.92,0.34 -1.37,0.56c-0.32,0.16 -0.64,0.29 -0.97,0.4c-0.3,0.09 -0.6,0.19 -0.9,0.28c-0.35,0.09 -0.7,0.19 -1.05,0.3c-0.35,0.1 -0.7,0.19 -1.04,0.3c-0.29,0.09 -0.58,0.18 -0.88,0.26c-0.26,0.08 -0.54,0.16 -0.81,0.24c-0.24,0.07 -0.48,0.15 -0.73,0.22c-0.22,0.06 -0.43,0.12 -0.65,0.19c-0.18,0.05 -0.36,0.11 -0.55,0.16c-0.17,0.05 -0.34,0.1 -0.51,0.15c-0.15,0.05 -0.3,0.09 -0.46,0.14c-0.17,0.05 -0.34,0.09 -0.51,0.14c-0.14,0.05 -0.28,0.1 -0.44,0.09c0,0 -1.27,-2.34 -1.27,-2.34l0,0c0.16,0.04 0.29,0 0.43,-0.05c0.17,-0.05 0.34,-0.1 0.51,-0.15c0.15,-0.05 0.31,-0.09 0.46,-0.14c0.17,-0.05 0.34,-0.09 0.51,-0.14c0.19,-0.06 0.37,-0.1 0.55,-0.16c0.22,-0.06 0.44,-0.12 0.66,-0.19c0.24,-0.07 0.49,-0.13 0.74,-0.21c0.26,-0.08 0.53,-0.16 0.81,-0.23c0.29,-0.09 0.58,-0.17 0.88,-0.26c0.35,-0.09 0.69,-0.2 1.03,-0.3c0.35,-0.1 0.71,-0.19 1.05,-0.31c0.3,-0.09 0.61,-0.17 0.91,-0.26c0.33,-0.11 0.65,-0.23 0.97,-0.38c0.45,-0.21 0.92,-0.39 1.39,-0.54c0.58,-0.21 1.13,-0.48 1.71,-0.68c0.47,-0.17 0.92,-0.37 1.37,-0.59c0.38,-0.11 0.78,-0.22 1.16,-0.34c0.32,-0.1 0.65,-0.18 0.96,-0.31c0,0 1.29,2.32 1.29,2.32z" fill="#000000" id="path4005" stroke="#000000" stroke-miterlimit="4" stroke-width="0"/>
   </g>
  </g>
 </g>
</svg>