<svg width="48" height="48" viewBox="0 0 48 48" fill="none" xmlns="http://www.w3.org/2000/svg">
<path d="M32.9999 30.7499C31.9969 30.7505 31.0066 30.9746 30.101 31.406C29.1955 31.8374 28.3974 32.4651 27.7649 33.2437L18.0468 26.9999C18.5105 26.0678 18.7519 25.041 18.7519 23.9999C18.7519 22.9589 18.5105 21.932 18.0468 20.9999L27.7649 14.7562C28.8543 16.0896 30.413 16.9554 32.1207 17.1755C33.8285 17.3957 35.5557 16.9536 36.9477 15.9401C38.3397 14.9265 39.2907 13.4184 39.6055 11.7255C39.9203 10.0326 39.5749 8.28348 38.6403 6.83731C37.7057 5.39113 36.2528 4.35772 34.58 3.94933C32.9072 3.54093 31.1416 3.78855 29.6457 4.64132C28.1498 5.49409 27.0372 6.88729 26.5365 8.53476C26.0357 10.1822 26.1848 11.9589 26.9531 13.4999L17.2349 19.7437C16.3557 18.6614 15.1629 17.878 13.8204 17.5012C12.478 17.1243 11.0517 17.1724 9.73772 17.6389C8.4237 18.1054 7.28639 18.9674 6.48209 20.1064C5.67779 21.2454 5.24597 22.6055 5.24597 23.9999C5.24597 25.3943 5.67779 26.7544 6.48209 27.8934C7.28639 29.0325 8.4237 29.8944 9.73772 30.3609C11.0517 30.8274 12.478 30.8755 13.8204 30.4987C15.1629 30.1218 16.3557 29.3384 17.2349 28.2562L26.9531 34.4999C26.3008 35.8147 26.0948 37.3062 26.3663 38.7486C26.6378 40.1909 27.372 41.5055 28.4577 42.4931C29.5434 43.4807 30.9214 44.0876 32.383 44.2217C33.8445 44.3558 35.3099 44.0099 36.5572 43.2364C37.8046 42.4628 38.7658 41.3038 39.2952 39.935C39.8247 38.5661 39.8936 37.062 39.4915 35.6505C39.0893 34.2389 38.2381 32.997 37.0667 32.1127C35.8953 31.2284 34.4676 30.7499 32.9999 30.7499ZM32.9999 5.24991C34.0383 5.24991 35.0533 5.55781 35.9167 6.13469C36.78 6.71157 37.4529 7.53151 37.8503 8.49082C38.2477 9.45013 38.3516 10.5057 38.1491 11.5241C37.9465 12.5425 37.4465 13.478 36.7123 14.2122C35.978 14.9464 35.0426 15.4465 34.0242 15.649C33.0058 15.8516 31.9502 15.7476 30.9909 15.3503C30.0315 14.9529 29.2116 14.28 28.6347 13.4167C28.0578 12.5533 27.7499 11.5383 27.7499 10.4999C27.7499 9.10752 28.3031 7.77216 29.2876 6.7876C30.2722 5.80303 31.6076 5.24991 32.9999 5.24991ZM11.9999 29.2499C10.9616 29.2499 9.94656 28.942 9.0832 28.3651C8.21984 27.7882 7.54694 26.9683 7.14958 26.009C6.75222 25.0497 6.64825 23.9941 6.85082 22.9757C7.05339 21.9573 7.55341 21.0218 8.28763 20.2876C9.02186 19.5534 9.95732 19.0534 10.9757 18.8508C11.9941 18.6482 13.0497 18.7522 14.009 19.1495C14.9683 19.5469 15.7883 20.2198 16.3652 21.0832C16.942 21.9465 17.2499 22.9616 17.2499 23.9999C17.2499 25.3923 16.6968 26.7277 15.7123 27.7122C14.7277 28.6968 13.3923 29.2499 11.9999 29.2499ZM32.9999 42.7499C31.9616 42.7499 30.9466 42.442 30.0832 41.8651C29.2198 41.2882 28.5469 40.4683 28.1496 39.509C27.7522 38.5497 27.6482 37.4941 27.8508 36.4757C28.0534 35.4573 28.5534 34.5218 29.2876 33.7876C30.0219 33.0534 30.9573 32.5534 31.9757 32.3508C32.9941 32.1482 34.0497 32.2522 35.009 32.6495C35.9683 33.0469 36.7883 33.7198 37.3652 34.5832C37.942 35.4465 38.2499 36.4616 38.2499 37.4999C38.2499 38.8923 37.6968 40.2277 36.7123 41.2122C35.7277 42.1968 34.3923 42.7499 32.9999 42.7499Z" fill="currentColor"/>
</svg>
